<svg xmlns="http://www.w3.org/2000/svg" enable-background="new 0 0 2000 2000" viewBox="0 0 2000 2000" id="ecommerce"><linearGradient id="a" x1="956.404" x2="1261.621" y1="640.228" y2="1307.01" gradientUnits="userSpaceOnUse"><stop offset="0" stop-color="#d292f8"></stop><stop offset=".494" stop-color="#a333eb"></stop><stop offset="1" stop-color="#1b0485"></stop></linearGradient><path fill="url(#a)" d="M1313.4,1251.6l17.06-41.12l187.75-449.75c4.43-10.6,2.86-22.74-4.26-31.93
		c-6.13-7.91-15.73-12.34-25.74-12.34h-495.9c-5.86,0-10.62,4.76-10.62,10.62s4.76,10.62,10.62,10.62h496.41
		c3.75,0,7.08,1.84,9.09,5.04c1.88,3,2.05,6.76,0.69,10.03l-185.45,444.25h-90.38c0.18-1.17,0.27-2.38,0.27-3.6v-64.59
		c0-12.99-10.57-23.56-23.56-23.56h-17.13V880.93c0-9.07-7.38-16.45-16.45-16.45h-128.58c-9.07,0-16.45,7.38-16.45,16.45v43.54
		c-0.76-0.07-1.53-0.11-2.32-0.11h-77.11c-12.99,0-23.56,10.57-23.56,23.56v64.59c0,0.78,0.04,1.55,0.12,2.32h-56.5
		c-11.89,0-21.56,9.67-21.56,21.56v159.06c0,0.54,0.03,1.07,0.07,1.59h-59.73l-156.58-480.5H489.94c-5.86,0-10.62,4.76-10.62,10.62
		c0,5.86,4.76,10.62,10.62,10.62h118.22l149.66,459.25h-0.54l5.17,14.21l2.29,7.03h0.27l10.73,29.52
		c3.72,10.23,13.51,17.16,24.39,17.28c-16.88,14.31-27.62,35.65-27.62,59.46c0,42.98,34.97,77.94,77.94,77.94
		s77.94-34.97,77.94-77.94c0-23.49-10.45-44.59-26.95-58.9l287.9,1.6c-15.46,14.25-25.17,34.66-25.17,57.3
		c0,42.98,34.96,77.94,77.94,77.94c42.98,0,77.94-34.97,77.94-77.94c0-22.67-9.74-43.11-25.24-57.36
		C1303.08,1265.37,1310.06,1259.66,1313.4,1251.6z M1199.38,1126.53c1.27,0,2.32,1.04,2.32,2.32v64.59c0,1.27-1.04,2.32-2.32,2.32
		h-155.05c-1.27,0-2.32-1.04-2.32-2.32v-64.59c0-1.27,1.04-2.32,2.32-2.32h121.47H1199.38z M1042.02,885.72H1161v219.56h-116.67
		h-2.32v-92.78v-64.59V885.72z M939.03,947.91c0-1.27,1.04-2.32,2.32-2.32l0,0h77.11c1.27,0,2.32,1.04,2.32,2.32v64.59
		c0,1.27-1.04,2.32-2.32,2.32h-77.11c-1.27,0-2.32-1.04-2.32-2.32V947.91z M861.08,1036.38c0-0.17,0.14-0.31,0.31-0.31h79.95h77.11
		h2c0.17,0,0.31,0.14,0.31,0.31v92.47v64.59v2c0,0.17-0.14,0.31-0.31,0.31H861.4c-0.17,0-0.31-0.14-0.31-0.31V1036.38z
		 M795.72,1240.53l-8.1-22.25h516.59l-10.44,25.17c-0.78,1.88-2.59,3.09-4.63,3.09c-0.01,0-0.02,0-0.03,0l-488.7-2.71
		C798.32,1243.82,796.43,1242.49,795.72,1240.53z M907.15,1324.54c0,31.26-25.43,56.7-56.69,56.7s-56.7-25.43-56.7-56.7
		c0-31.26,25.43-56.69,56.7-56.69S907.16,1293.29,907.15,1324.54z M1298.82,1324.54c0,31.26-25.43,56.7-56.7,56.7
		c-31.26,0-56.69-25.43-56.69-56.7c0-31.26,25.43-56.69,56.69-56.69C1273.38,1267.85,1298.82,1293.29,1298.82,1324.54z"></path></svg>